<svg id="Layer_1" data-name="Layer 1" xmlns="http://www.w3.org/2000/svg" xmlns:xlink="http://www.w3.org/1999/xlink" viewBox="0 0 486.7 491.47"><defs><style>.cls-1{fill:url(#linear-gradient);}.cls-2{fill:url(#linear-gradient-2);}.cls-3{fill:url(#linear-gradient-3);}</style><linearGradient id="linear-gradient" x1="519.83" y1="447.64" x2="443" y2="303.84" gradientUnits="userSpaceOnUse"><stop offset="0.04" stop-color="#00b2c7"/><stop offset="1" stop-color="#008ae6"/></linearGradient><linearGradient id="linear-gradient-2" x1="2012.34" y1="2387.21" x2="1775.7" y2="2150.58" gradientTransform="translate(-1736.59 2369.21) rotate(-90)" gradientUnits="userSpaceOnUse"><stop offset="0" stop-color="#008ae6"/><stop offset="0.3" stop-color="#008fe2"/><stop offset="0.66" stop-color="#009dd8"/><stop offset="1" stop-color="#00b2c8"/></linearGradient><linearGradient id="linear-gradient-3" x1="709.01" y1="844.37" x2="403.23" y2="538.59" gradientTransform="matrix(1, 0, 0, 1, 0, 0)" xlink:href="#linear-gradient-2"/></defs><title>Sanghvi infosoft logo ( Blue shade )</title><path class="cls-1" d="M612.45,510.44,484.67,638.23h0a104.87,104.87,0,0,1,0-148.32l52.46-52.46-52.64-52.64a104.87,104.87,0,0,1,0-148.32h0l128,128A103.21,103.21,0,0,1,612.45,510.44Z" transform="translate(-292.85 -236.49)"/><path class="cls-2" d="M570.05,404.44l-33,33-52.46,52.46a104.87,104.87,0,0,0,0,148.32h0L612.36,510.44a103.23,103.23,0,0,0,0-146l-42.31-42.32A58.21,58.21,0,0,1,570.05,404.44Z" transform="translate(-292.85 -236.49)"/><path class="cls-3" d="M294.45,705.09a22.41,22.41,0,0,0,11.33,3.2c6.46,0,10.23-3.42,10.23-8.35,0-4.58-2.61-7.19-9.22-9.73-8-2.83-12.92-7-12.92-13.87,0-7.62,6.32-13.28,15.83-13.28a22.23,22.23,0,0,1,10.81,2.39l-1.74,5.16a19.36,19.36,0,0,0-9.29-2.33c-6.68,0-9.22,4-9.22,7.34,0,4.57,3,6.82,9.73,9.43,8.27,3.2,12.48,7.19,12.48,14.38,0,7.55-5.59,14.08-17.13,14.08-4.72,0-9.87-1.38-12.49-3.12Z" transform="translate(-292.85 -236.49)"/><path class="cls-3" d="M350.57,712.79l-.51-4.43h-.22a13.08,13.08,0,0,1-10.74,5.23c-7.12,0-10.75-5-10.75-10.1,0-8.49,7.55-13.14,21.13-13.06v-.73c0-2.9-.8-8.13-8-8.13a17.45,17.45,0,0,0-9.14,2.61L330.89,680a21.82,21.82,0,0,1,11.55-3.12c10.74,0,13.36,7.33,13.36,14.37v13.15a49,49,0,0,0,.58,8.42Zm-.94-17.94c-7-.14-14.89,1.09-14.89,7.92,0,4.14,2.76,6.1,6,6.1a8.74,8.74,0,0,0,8.49-5.88,6.66,6.66,0,0,0,.37-2Z" transform="translate(-292.85 -236.49)"/><path class="cls-3" d="M366.1,687.16c0-3.63-.07-6.61-.29-9.51h5.67l.36,5.81H372a12.94,12.94,0,0,1,11.62-6.61c4.87,0,12.42,2.9,12.42,15v21h-6.39V692.53c0-5.66-2.11-10.38-8.13-10.38a9.08,9.08,0,0,0-8.57,6.53,9.21,9.21,0,0,0-.44,3v21.13H366.1Z" transform="translate(-292.85 -236.49)"/><path class="cls-3" d="M436.67,677.65c-.14,2.54-.29,5.37-.29,9.65v20.41c0,8-1.6,13-5,16S423,728,418.59,728c-4.21,0-8.85-1-11.69-2.9l1.6-4.87A19.87,19.87,0,0,0,418.81,723c6.54,0,11.33-3.41,11.33-12.27v-3.92H430c-2,3.27-5.73,5.88-11.18,5.88-8.71,0-14.95-7.4-14.95-17.13,0-11.91,7.76-18.66,15.82-18.66,6.1,0,9.44,3.19,11,6.1h.14l.29-5.3Zm-6.61,13.86a9.34,9.34,0,0,0-9.29-9.65c-6.1,0-10.45,5.15-10.45,13.28,0,6.9,3.48,12.64,10.38,12.64a9.34,9.34,0,0,0,8.86-6.54,11.18,11.18,0,0,0,.5-3.41Z" transform="translate(-292.85 -236.49)"/><path class="cls-3" d="M447,661.24h6.39v21.93h.14a11.89,11.89,0,0,1,4.58-4.51,13.22,13.22,0,0,1,6.53-1.81c4.72,0,12.27,2.9,12.27,15v20.91H470.5V692.6c0-5.66-2.1-10.45-8.13-10.45a9.17,9.17,0,0,0-8.57,6.39,7.78,7.78,0,0,0-.43,3.05v21.2H447Z" transform="translate(-292.85 -236.49)"/><path class="cls-3" d="M488.8,677.65l6.89,19.75a88.34,88.34,0,0,1,2.83,9h.22c.8-2.91,1.82-5.81,3-9l6.82-19.75h6.68l-13.79,35.14h-6.1L482,677.65Z" transform="translate(-292.85 -236.49)"/><path class="cls-3" d="M528.36,667.77a4,4,0,0,1-7.91,0,3.89,3.89,0,0,1,4-4A3.79,3.79,0,0,1,528.36,667.77Zm-7.11,45V677.65h6.39v35.14Z" transform="translate(-292.85 -236.49)"/><path class="cls-3" d="M560.16,663.85v48.94h-6.32V663.85Z" transform="translate(-292.85 -236.49)"/><path class="cls-3" d="M571.7,687.16c0-3.63-.07-6.61-.29-9.51h5.67l.36,5.81h.14a12.94,12.94,0,0,1,11.62-6.61c4.86,0,12.41,2.9,12.41,15v21h-6.39V692.53c0-5.66-2.1-10.38-8.13-10.38a9.08,9.08,0,0,0-8.56,6.53,9.21,9.21,0,0,0-.44,3v21.13H571.7Z" transform="translate(-292.85 -236.49)"/><path class="cls-3" d="M612.65,712.79V682.51h-4.94v-4.86h4.94V676c0-4.94,1.09-9.44,4.06-12.27a12.25,12.25,0,0,1,8.57-3.27,14.83,14.83,0,0,1,5.45,1l-.88,4.93a9.62,9.62,0,0,0-4.06-.79c-5.45,0-6.83,4.79-6.83,10.16v1.89h8.5v4.86H619v30.28Z" transform="translate(-292.85 -236.49)"/><path class="cls-3" d="M664.05,694.93c0,13-9,18.66-17.5,18.66-9.51,0-16.84-7-16.84-18.08,0-11.76,7.69-18.66,17.42-18.66C657.22,676.85,664.05,684.18,664.05,694.93Zm-27.88.36c0,7.7,4.43,13.5,10.67,13.5s10.68-5.73,10.68-13.65c0-5.95-3-13.5-10.53-13.5S636.17,688.61,636.17,695.29Z" transform="translate(-292.85 -236.49)"/><path class="cls-3" d="M671.24,706.25a16.64,16.64,0,0,0,8.42,2.54c4.64,0,6.82-2.32,6.82-5.22,0-3.05-1.81-4.72-6.53-6.46-6.32-2.26-9.3-5.74-9.3-10,0-5.66,4.58-10.31,12.13-10.31a17.55,17.55,0,0,1,8.64,2.18l-1.6,4.64a13.69,13.69,0,0,0-7.19-2c-3.77,0-5.88,2.18-5.88,4.79,0,2.91,2.11,4.21,6.68,6,6.1,2.32,9.22,5.37,9.22,10.6,0,6.17-4.79,10.52-13.14,10.52a20,20,0,0,1-9.87-2.39Z" transform="translate(-292.85 -236.49)"/><path class="cls-3" d="M732.66,694.93c0,13-9,18.66-17.5,18.66-9.51,0-16.85-7-16.85-18.08,0-11.76,7.7-18.66,17.43-18.66C725.83,676.85,732.66,684.18,732.66,694.93Zm-27.88.36c0,7.7,4.43,13.5,10.67,13.5s10.67-5.73,10.67-13.65c0-5.95-3-13.5-10.53-13.5S704.78,688.61,704.78,695.29Z" transform="translate(-292.85 -236.49)"/><path class="cls-3" d="M741.37,712.79V682.51h-4.94v-4.86h4.94V676c0-4.94,1.08-9.44,4.06-12.27a12.25,12.25,0,0,1,8.57-3.27,14.72,14.72,0,0,1,5.44,1l-.87,4.93a9.62,9.62,0,0,0-4.06-.79c-5.45,0-6.83,4.79-6.83,10.16v1.89h8.5v4.86h-8.5v30.28Z" transform="translate(-292.85 -236.49)"/><path class="cls-3" d="M770.4,667.56v10.09h9.15v4.86H770.4v19c0,4.36,1.24,6.83,4.8,6.83a14.06,14.06,0,0,0,3.7-.44l.29,4.79a15.64,15.64,0,0,1-5.66.87,8.85,8.85,0,0,1-6.9-2.68c-1.82-1.89-2.47-5-2.47-9.15V682.51h-5.45v-4.86h5.45v-8.42Z" transform="translate(-292.85 -236.49)"/></svg>